<svg width="125" height="42" viewBox="0 0 125 42" fill="none" xmlns="http://www.w3.org/2000/svg">
<g id="iOS">
<rect id="Rectangle 482" x="1" y="0.778076" width="123.101" height="40.4348" rx="8.42857" stroke="white" strokeWidth="0.842857"/>
<g id="Group 2221">
<g id="&#60;Group&#62;">
<g id="&#60;Group&#62;_2">
<path id="&#60;Path&#62;" d="M27.923 20.6423C27.9342 19.77 28.1659 18.9148 28.5965 18.1561C29.0271 17.3975 29.6426 16.76 30.3857 16.3032C29.9136 15.6289 29.2908 15.0741 28.5668 14.6827C27.8427 14.2912 27.0374 14.074 26.2147 14.0483C24.4598 13.8641 22.7585 15.0984 21.8643 15.0984C20.9527 15.0984 19.5758 14.0666 18.0932 14.0971C17.1342 14.1281 16.1995 14.4069 15.3803 14.9065C14.5611 15.4061 13.8853 16.1094 13.4187 16.9478C11.3976 20.4471 12.9052 25.5899 14.8413 28.4185C15.8099 29.8035 16.942 31.3507 18.4233 31.2958C19.8729 31.2357 20.4143 30.3715 22.164 30.3715C23.8975 30.3715 24.4054 31.2958 25.9168 31.2609C27.4722 31.2357 28.4522 29.8697 29.3869 28.4715C30.0829 27.4846 30.6184 26.3939 30.9737 25.2397C30.0701 24.8575 29.2989 24.2177 28.7564 23.4002C28.2139 22.5826 27.924 21.6235 27.923 20.6423Z" fill="white"/>
<path id="&#60;Path&#62;_2" d="M25.0681 12.1882C25.9162 11.1701 26.334 9.86148 26.2329 8.54028C24.9372 8.67637 23.7403 9.29563 22.8808 10.2747C22.4605 10.7529 22.1386 11.3094 21.9335 11.9121C21.7285 12.5149 21.6442 13.1522 21.6855 13.7875C22.3336 13.7942 22.9747 13.6537 23.5607 13.3767C24.1466 13.0996 24.662 12.6933 25.0681 12.1882Z" fill="white"/>
</g>
</g>
<g id="Group">
<path id="Vector" d="M45.314 27.9288H40.5571L39.4147 31.3019H37.3999L41.9055 18.8223H43.9989L48.5045 31.3019H46.4553L45.314 27.9288ZM41.0498 26.3723H44.8204L42.9616 20.898H42.9095L41.0498 26.3723Z" fill="white"/>
<path id="Vector_2" d="M58.2347 26.7531C58.2347 29.5806 56.7214 31.3971 54.4377 31.3971C53.8591 31.4274 53.2838 31.2941 52.7775 31.0126C52.2712 30.7311 51.8544 30.3127 51.5749 29.8053H51.5317V34.3119H49.6641V22.2033H51.4718V23.7167H51.5062C51.7986 23.2117 52.2224 22.7954 52.7325 22.5122C53.2427 22.229 53.8201 22.0893 54.4033 22.1081C56.7126 22.1081 58.2347 23.9335 58.2347 26.7531ZM56.3151 26.7531C56.3151 24.911 55.3631 23.7 53.9106 23.7C52.4837 23.7 51.5239 24.9365 51.5239 26.7531C51.5239 28.5864 52.4837 29.8141 53.9106 29.8141C55.3631 29.8141 56.315 28.6119 56.315 26.7531H56.3151Z" fill="white"/>
<path id="Vector_3" d="M68.2503 26.7531C68.2503 29.5806 66.7365 31.3971 64.4528 31.3971C63.8743 31.4274 63.2989 31.2941 62.7926 31.0126C62.2864 30.7311 61.8696 30.3127 61.59 29.8053H61.5468V34.3119H59.6792V22.2033H61.487V23.7167H61.5213C61.8137 23.2117 62.2375 22.7954 62.7477 22.5122C63.2578 22.229 63.8352 22.0893 64.4184 22.1081C66.7277 22.1081 68.2503 23.9335 68.2503 26.7531ZM66.3302 26.7531C66.3302 24.911 65.3783 23.7 63.9258 23.7C62.4988 23.7 61.539 24.9365 61.539 26.7531C61.539 28.5864 62.4988 29.8141 63.9258 29.8141C65.3783 29.8141 66.3302 28.6119 66.3302 26.7531Z" fill="white"/>
<path id="Vector_4" d="M74.8674 27.8241C75.0058 29.0616 76.208 29.8742 77.8509 29.8742C79.425 29.8742 80.5576 29.0616 80.5576 27.9457C80.5576 26.9771 79.8745 26.3971 78.2572 25.9996L76.6398 25.61C74.3482 25.0565 73.2844 23.9848 73.2844 22.2457C73.2844 20.0925 75.1608 18.6135 77.8244 18.6135C80.4624 18.6135 82.2702 20.0925 82.331 22.2457H80.4457C80.3328 21.0003 79.3033 20.2486 77.7988 20.2486C76.2944 20.2486 75.2649 21.0091 75.2649 22.1162C75.2649 22.9985 75.9224 23.5176 77.5309 23.9151L78.9059 24.2527C81.4664 24.8582 82.5292 25.8867 82.5292 27.7121C82.5292 30.0469 80.6704 31.5092 77.7124 31.5092C74.9449 31.5092 73.0763 30.0812 72.9556 27.824L74.8674 27.8241Z" fill="white"/>
<path id="Vector_5" d="M86.5622 20.0488V22.202H88.2924V23.681H86.5622V28.697C86.5622 29.4762 86.9086 29.8393 87.6692 29.8393C87.8746 29.8358 88.0797 29.8213 88.2836 29.7961V31.2663C87.9416 31.3302 87.594 31.3591 87.2462 31.3526C85.4041 31.3526 84.6857 30.6607 84.6857 28.8962V23.681H83.3628V22.202H84.6857V20.0488H86.5622Z" fill="white"/>
<path id="Vector_6" d="M89.293 26.7525C89.293 23.8897 90.979 22.0908 93.6082 22.0908C96.2462 22.0908 97.9244 23.8897 97.9244 26.7525C97.9244 29.6231 96.2551 31.4142 93.6082 31.4142C90.9623 31.4142 89.293 29.6231 89.293 26.7525ZM96.0215 26.7525C96.0215 24.7887 95.1215 23.6297 93.6082 23.6297C92.0949 23.6297 91.1949 24.7975 91.1949 26.7525C91.1949 28.7241 92.0949 29.8744 93.6082 29.8744C95.1215 29.8744 96.0215 28.7241 96.0215 26.7525H96.0215Z" fill="white"/>
<path id="Vector_7" d="M99.4644 22.2032H101.246V23.7519H101.289C101.409 23.2682 101.693 22.8408 102.091 22.5414C102.49 22.242 102.979 22.089 103.477 22.108C103.693 22.1073 103.907 22.1307 104.117 22.1777V23.9246C103.846 23.8416 103.562 23.8035 103.278 23.8118C103.007 23.8007 102.736 23.8486 102.485 23.952C102.234 24.0554 102.008 24.2119 101.824 24.4108C101.639 24.6096 101.499 24.8462 101.414 25.1041C101.329 25.362 101.301 25.6353 101.332 25.9051V31.3018H99.4644L99.4644 22.2032Z" fill="white"/>
<path id="Vector_8" d="M112.729 28.629C112.477 30.2807 110.869 31.4142 108.811 31.4142C106.164 31.4142 104.521 29.6408 104.521 26.7957C104.521 23.9418 106.173 22.0908 108.732 22.0908C111.25 22.0908 112.833 23.8201 112.833 26.5788V27.2187H106.406V27.3315C106.377 27.6664 106.419 28.0037 106.529 28.3211C106.64 28.6385 106.817 28.9287 107.048 29.1725C107.28 29.4162 107.561 29.608 107.872 29.7349C108.183 29.8618 108.518 29.9211 108.854 29.9087C109.295 29.9501 109.738 29.8478 110.117 29.6173C110.495 29.3867 110.789 29.0401 110.955 28.6289L112.729 28.629ZM106.415 25.9134H110.964C110.981 25.6123 110.935 25.311 110.83 25.0284C110.725 24.7458 110.562 24.488 110.353 24.2712C110.143 24.0543 109.891 23.8831 109.612 23.7684C109.333 23.6536 109.034 23.5977 108.732 23.6041C108.428 23.6023 108.127 23.6608 107.845 23.7761C107.564 23.8914 107.308 24.0613 107.093 24.276C106.877 24.4907 106.706 24.7459 106.59 25.027C106.474 25.308 106.414 25.6093 106.415 25.9134V25.9134Z" fill="white"/>
</g>
<g id="Group_2">
<path id="Vector_9" d="M40.8164 9.42917C41.2079 9.40107 41.6008 9.46022 41.9667 9.60236C42.3326 9.74449 42.6625 9.96606 42.9324 10.2511C43.2023 10.5361 43.4056 10.8775 43.5276 11.2506C43.6496 11.6237 43.6873 12.0193 43.6379 12.4087C43.6379 14.3244 42.6025 15.4256 40.8164 15.4256H38.6504V9.42917H40.8164ZM39.5817 14.5776H40.7123C40.9921 14.5943 41.2721 14.5484 41.5319 14.4433C41.7917 14.3382 42.0249 14.1764 42.2143 13.9698C42.4037 13.7632 42.5447 13.517 42.627 13.2491C42.7092 12.9811 42.7307 12.6982 42.6899 12.4209C42.7277 12.1447 42.7041 11.8636 42.6205 11.5976C42.537 11.3316 42.3957 11.0874 42.2067 10.8825C42.0177 10.6775 41.7857 10.5169 41.5274 10.4122C41.269 10.3074 40.9907 10.2611 40.7123 10.2766H39.5817V14.5776Z" fill="white"/>
<path id="Vector_10" d="M44.6898 13.1612C44.6613 12.8638 44.6954 12.5638 44.7897 12.2803C44.884 11.9968 45.0365 11.7362 45.2374 11.5151C45.4383 11.2941 45.6833 11.1174 45.9565 10.9965C46.2297 10.8757 46.5251 10.8132 46.8239 10.8132C47.1226 10.8132 47.418 10.8757 47.6912 10.9965C47.9644 11.1174 48.2094 11.2941 48.4103 11.5151C48.6112 11.7362 48.7637 11.9968 48.858 12.2803C48.9524 12.5638 48.9864 12.8638 48.9579 13.1612C48.9869 13.4589 48.9533 13.7594 48.8592 14.0433C48.7652 14.3272 48.6128 14.5883 48.4118 14.8098C48.2108 15.0313 47.9657 15.2083 47.6922 15.3295C47.4187 15.4506 47.123 15.5132 46.8239 15.5132C46.5248 15.5132 46.229 15.4506 45.9555 15.3295C45.682 15.2083 45.4369 15.0313 45.2359 14.8098C45.0349 14.5883 44.8825 14.3272 44.7885 14.0433C44.6944 13.7594 44.6608 13.4589 44.6898 13.1612ZM48.0393 13.1612C48.0393 12.1803 47.5987 11.6067 46.8253 11.6067C46.049 11.6067 45.6123 12.1803 45.6123 13.1612C45.6123 14.15 46.0491 14.7192 46.8253 14.7192C47.5987 14.7192 48.0393 14.146 48.0393 13.1612H48.0393Z" fill="white"/>
<path id="Vector_11" d="M54.6318 15.4252H53.7053L52.77 12.0923H52.6994L51.768 15.4252H50.8504L49.603 10.8999H50.5089L51.3195 14.3529H51.3863L52.3166 10.8999H53.1734L54.1038 14.3529H54.1744L54.9811 10.8999H55.8742L54.6318 15.4252Z" fill="white"/>
<path id="Vector_12" d="M56.9233 10.9006H57.7831V11.6195H57.8498C57.963 11.3613 58.154 11.1449 58.396 11.0004C58.6381 10.8558 58.9192 10.7905 59.2002 10.8133C59.4204 10.7967 59.6415 10.8299 59.8471 10.9104C60.0527 10.9909 60.2376 11.1166 60.388 11.2783C60.5384 11.4399 60.6506 11.6333 60.7161 11.8442C60.7816 12.0551 60.7988 12.278 60.7665 12.4964V15.4259H59.8735V12.7207C59.8735 11.9934 59.5574 11.6318 58.897 11.6318C58.7475 11.6248 58.5982 11.6503 58.4595 11.7064C58.3207 11.7625 58.1958 11.8479 58.0931 11.9569C57.9905 12.0658 57.9126 12.1956 57.8649 12.3374C57.8171 12.4793 57.8006 12.6297 57.8164 12.7786V15.4259H56.9233L56.9233 10.9006Z" fill="white"/>
<path id="Vector_13" d="M62.189 9.13354H63.082V15.4253H62.189V9.13354Z" fill="white"/>
<path id="Vector_14" d="M64.324 13.1603C64.2956 12.8629 64.3296 12.5628 64.424 12.2794C64.5183 11.9959 64.6708 11.7352 64.8718 11.5142C65.0727 11.2931 65.3177 11.1164 65.5909 10.9956C65.8641 10.8747 66.1596 10.8123 66.4584 10.8123C66.7571 10.8123 67.0526 10.8747 67.3258 10.9956C67.599 11.1164 67.844 11.2931 68.0449 11.5142C68.2459 11.7352 68.3984 11.9959 68.4927 12.2794C68.587 12.5628 68.6211 12.8629 68.5927 13.1603C68.6216 13.458 68.588 13.7585 68.4939 14.0424C68.3998 14.3263 68.2474 14.5874 68.0463 14.8089C67.8453 15.0304 67.6002 15.2074 67.3267 15.3286C67.0533 15.4497 66.7575 15.5123 66.4584 15.5123C66.1592 15.5123 65.8634 15.4497 65.59 15.3286C65.3165 15.2074 65.0714 15.0304 64.8703 14.8089C64.6693 14.5874 64.5169 14.3263 64.4228 14.0424C64.3287 13.7585 64.2951 13.458 64.324 13.1603ZM67.6736 13.1603C67.6736 12.1794 67.2329 11.6058 66.4596 11.6058C65.6833 11.6058 65.2466 12.1794 65.2466 13.1603C65.2466 14.1491 65.6833 14.7183 66.4596 14.7183C67.2329 14.7183 67.6736 14.1451 67.6736 13.1603H67.6736Z" fill="white"/>
<path id="Vector_15" d="M69.5332 14.1451C69.5332 13.3305 70.1397 12.8609 71.2163 12.7942L72.4421 12.7235V12.3329C72.4421 11.855 72.1261 11.5851 71.5156 11.5851C71.0171 11.5851 70.6716 11.7681 70.5725 12.0881H69.7079C69.7992 11.3108 70.5303 10.8123 71.5569 10.8123C72.6914 10.8123 73.3312 11.377 73.3312 12.3329V15.4249H72.4715V14.7889H72.4009C72.2575 15.017 72.0561 15.203 71.8173 15.3278C71.5784 15.4527 71.3108 15.5119 71.0416 15.4994C70.8517 15.5192 70.6596 15.4989 70.478 15.4399C70.2963 15.3809 70.1291 15.2845 69.9869 15.1569C69.8448 15.0293 69.731 14.8734 69.6529 14.6991C69.5747 14.5248 69.534 14.3361 69.5332 14.1451ZM72.4421 13.7584V13.3801L71.337 13.4508C70.7138 13.4925 70.4312 13.7045 70.4312 14.1034C70.4312 14.5107 70.7845 14.7477 71.2703 14.7477C71.4127 14.7621 71.5565 14.7477 71.6931 14.7054C71.8298 14.6631 71.9566 14.5938 72.0659 14.5015C72.1752 14.4092 72.2649 14.2958 72.3295 14.1682C72.3941 14.0405 72.4324 13.9012 72.4421 13.7584Z" fill="white"/>
<path id="Vector_16" d="M74.5044 13.1608C74.5044 11.7309 75.2395 10.825 76.3828 10.825C76.6656 10.812 76.9463 10.8797 77.192 11.0203C77.4378 11.1609 77.6384 11.3685 77.7705 11.6189H77.8373V9.13354H78.7303V15.4253H77.8746V14.7104H77.8039C77.6616 14.9591 77.4539 15.1641 77.2035 15.3033C76.953 15.4425 76.6692 15.5105 76.3828 15.4999C75.2316 15.5 74.5044 14.5941 74.5044 13.1608ZM75.4269 13.1608C75.4269 14.1206 75.8794 14.6981 76.636 14.6981C77.3888 14.6981 77.854 14.1122 77.854 13.1647C77.854 12.2216 77.3839 11.6273 76.636 11.6273C75.8843 11.6273 75.4269 12.2088 75.4269 13.1608H75.4269Z" fill="white"/>
<path id="Vector_17" d="M82.4256 13.1612C82.3972 12.8638 82.4312 12.5638 82.5255 12.2803C82.6198 11.9968 82.7723 11.7362 82.9732 11.5151C83.1742 11.2941 83.4191 11.1174 83.6923 10.9965C83.9655 10.8757 84.2609 10.8132 84.5597 10.8132C84.8584 10.8132 85.1539 10.8757 85.4271 10.9965C85.7003 11.1174 85.9452 11.2941 86.1461 11.5151C86.3471 11.7362 86.4996 11.9968 86.5939 12.2803C86.6882 12.5638 86.7222 12.8638 86.6938 13.1612C86.7228 13.4589 86.6891 13.7594 86.5951 14.0433C86.501 14.3272 86.3486 14.5883 86.1476 14.8098C85.9466 15.0313 85.7015 15.2083 85.4281 15.3295C85.1546 15.4506 84.8588 15.5132 84.5597 15.5132C84.2606 15.5132 83.9648 15.4506 83.6913 15.3295C83.4178 15.2083 83.1727 15.0313 82.9718 14.8098C82.7708 14.5883 82.6184 14.3272 82.5243 14.0433C82.4302 13.7594 82.3966 13.4589 82.4256 13.1612ZM85.7752 13.1612C85.7752 12.1803 85.3345 11.6067 84.5612 11.6067C83.7849 11.6067 83.3482 12.1803 83.3482 13.1612C83.3482 14.15 83.7849 14.7192 84.5612 14.7192C85.3345 14.7192 85.7752 14.146 85.7752 13.1612Z" fill="white"/>
<path id="Vector_18" d="M87.8916 10.9006H88.7513V11.6195H88.8181C88.9313 11.3613 89.1222 11.1449 89.3643 11.0004C89.6063 10.8558 89.8875 10.7905 90.1685 10.8133C90.3887 10.7967 90.6097 10.8299 90.8154 10.9104C91.021 10.9909 91.2058 11.1166 91.3563 11.2783C91.5067 11.4399 91.6188 11.6333 91.6843 11.8442C91.7499 12.0551 91.7671 12.278 91.7348 12.4964V15.4259H90.8417V12.7207C90.8417 11.9934 90.5257 11.6318 89.8652 11.6318C89.7157 11.6248 89.5665 11.6503 89.4277 11.7064C89.289 11.7625 89.164 11.8479 89.0614 11.9569C88.9588 12.0658 88.8809 12.1956 88.8331 12.3374C88.7854 12.4793 88.7688 12.6297 88.7847 12.7786V15.4259H87.8916V10.9006Z" fill="white"/>
<path id="Vector_19" d="M96.7814 9.77344V10.9207H97.7618V11.673H96.7814V13.9999C96.7814 14.4739 96.9767 14.6815 97.4213 14.6815C97.5351 14.6811 97.6488 14.6742 97.7618 14.6608V15.4047C97.6014 15.4334 97.4389 15.4487 97.276 15.4504C96.2828 15.4504 95.8873 15.101 95.8873 14.2285V11.6729H95.1689V10.9207H95.8873V9.77344H96.7814Z" fill="white"/>
<path id="Vector_20" d="M98.9814 9.13354H99.8667V11.6273H99.9373C100.056 11.3667 100.252 11.149 100.499 11.004C100.746 10.8589 101.032 10.7935 101.317 10.8167C101.536 10.8047 101.755 10.8413 101.958 10.9238C102.162 11.0062 102.344 11.1325 102.493 11.2936C102.642 11.4548 102.753 11.6468 102.82 11.8559C102.886 12.0651 102.905 12.2863 102.876 12.5037V15.4254H101.982V12.724C101.982 12.0012 101.645 11.6351 101.014 11.6351C100.86 11.6226 100.706 11.6437 100.562 11.697C100.417 11.7503 100.286 11.8345 100.177 11.9438C100.069 12.0531 99.9856 12.1848 99.9333 12.3296C99.881 12.4745 99.8609 12.629 99.8746 12.7824V15.4253H98.9815L98.9814 9.13354Z" fill="white"/>
<path id="Vector_21" d="M108.083 14.2031C107.962 14.6167 107.699 14.9744 107.341 15.2138C106.982 15.4531 106.551 15.5588 106.122 15.5123C105.824 15.5202 105.528 15.463 105.254 15.3449C104.98 15.2268 104.735 15.0505 104.537 14.8283C104.338 14.6061 104.189 14.3432 104.102 14.058C104.015 13.7728 103.991 13.472 104.032 13.1765C103.992 12.8802 104.017 12.5788 104.104 12.2927C104.191 12.0066 104.338 11.7425 104.536 11.5184C104.734 11.2942 104.977 11.1151 105.25 10.9933C105.523 10.8715 105.819 10.8098 106.118 10.8123C107.378 10.8123 108.137 11.6726 108.137 13.0936V13.4052H104.942V13.4553C104.928 13.6213 104.949 13.7885 105.003 13.946C105.057 14.1035 105.144 14.248 105.258 14.37C105.371 14.4921 105.509 14.5891 105.662 14.6548C105.815 14.7205 105.98 14.7535 106.147 14.7517C106.361 14.7773 106.577 14.7388 106.769 14.6412C106.96 14.5435 107.119 14.391 107.224 14.2031L108.083 14.2031ZM104.942 12.7447H107.227C107.239 12.5928 107.218 12.4403 107.167 12.2969C107.116 12.1534 107.035 12.0223 106.93 11.9119C106.825 11.8015 106.698 11.7143 106.558 11.6558C106.417 11.5973 106.266 11.5689 106.114 11.5724C105.959 11.5705 105.806 11.5995 105.663 11.6577C105.52 11.716 105.39 11.8022 105.28 11.9115C105.171 12.0207 105.085 12.1508 105.027 12.2939C104.969 12.437 104.94 12.5903 104.942 12.7447H104.942Z" fill="white"/>
</g>
</g>
</g>
</svg>
