<svg width="126" height="43" viewBox="0 0 126 43" fill="none" xmlns="http://www.w3.org/2000/svg">
<g id="Google Play">
<rect id="Rectangle 482" x="1" y="1.21289" width="124" height="40.4348" rx="8.42857" stroke="white" strokeWidth="0.842857"/>
<g id="Group">
<path id="Vector" d="M43.6483 13.1982C43.6483 13.9034 43.472 14.5204 43.0312 14.9612C42.5024 15.4901 41.8853 15.7545 41.092 15.7545C40.2986 15.7545 39.6816 15.4901 39.1527 14.9612C38.6238 14.4323 38.3594 13.8152 38.3594 13.0219C38.3594 12.2286 38.6238 11.6115 39.1527 11.0826C39.6816 10.5538 40.2986 10.2893 41.092 10.2893C41.4446 10.2893 41.7972 10.3775 42.1498 10.5538C42.5024 10.73 42.7668 10.9063 42.9431 11.1708L42.5024 11.6115C42.1498 11.1708 41.709 10.9945 41.092 10.9945C40.5631 10.9945 40.0342 11.1708 39.6816 11.6115C39.2409 11.9641 39.0646 12.493 39.0646 13.1101C39.0646 13.7271 39.2409 14.256 39.6816 14.6086C40.1223 14.9612 40.5631 15.2256 41.092 15.2256C41.709 15.2256 42.1498 15.0493 42.5905 14.6086C42.8549 14.3441 43.0312 13.9915 43.0312 13.5508H41.092V12.8456H43.6483C43.6483 12.9338 43.6483 13.1101 43.6483 13.1982Z" fill="white" stroke="white" strokeWidth="0.168571" stroke-miterlimit="10"/>
<path id="Vector_2" d="M47.7034 10.9955H45.3234V12.6703H47.5271V13.2873H45.3234V14.9621H47.7034V15.6673H44.6182V10.3784H47.7034V10.9955Z" fill="white" stroke="white" strokeWidth="0.168571" stroke-miterlimit="10"/>
<path id="Vector_3" d="M50.6119 15.6673H49.9067V10.9955H48.4082V10.3784H52.1104V10.9955H50.6119V15.6673Z" fill="white" stroke="white" strokeWidth="0.168571" stroke-miterlimit="10"/>
<path id="Vector_4" d="M54.6665 15.6673V10.3784H55.3717V15.6673H54.6665Z" fill="white" stroke="white" strokeWidth="0.168571" stroke-miterlimit="10"/>
<path id="Vector_5" d="M58.3697 15.6673H57.6645V10.9955H56.166V10.3784H59.7801V10.9955H58.2816V15.6673H58.3697Z" fill="white" stroke="white" strokeWidth="0.168571" stroke-miterlimit="10"/>
<path id="Vector_6" d="M66.7436 14.9614C66.2148 15.4903 65.5977 15.7548 64.8044 15.7548C64.011 15.7548 63.394 15.4903 62.8651 14.9614C62.3362 14.4325 62.0718 13.8155 62.0718 13.0222C62.0718 12.2288 62.3362 11.6118 62.8651 11.0829C63.394 10.554 64.011 10.2896 64.8044 10.2896C65.5977 10.2896 66.2148 10.554 66.7436 11.0829C67.2725 11.6118 67.537 12.2288 67.537 13.0222C67.537 13.8155 67.2725 14.4325 66.7436 14.9614ZM63.394 14.5207C63.7466 14.8733 64.2755 15.1377 64.8044 15.1377C65.3333 15.1377 65.8622 14.9614 66.2148 14.5207C66.5674 14.1681 66.8318 13.6392 66.8318 13.0222C66.8318 12.4051 66.6555 11.8762 66.2148 11.5236C65.8622 11.171 65.3333 10.9066 64.8044 10.9066C64.2755 10.9066 63.7466 11.0829 63.394 11.5236C63.0414 11.8762 62.777 12.4051 62.777 13.0222C62.777 13.6392 62.9533 14.1681 63.394 14.5207Z" fill="white" stroke="white" strokeWidth="0.168571" stroke-miterlimit="10"/>
<path id="Vector_7" d="M68.5063 15.6673V10.3784H69.2997L71.856 14.5214V13.4636V10.3784H72.5612V15.6673H71.856L69.1234 11.3481V12.4058V15.6673H68.5063Z" fill="white" stroke="white" strokeWidth="0.168571" stroke-miterlimit="10"/>
</g>
<path id="Vector_8" d="M61.8948 23.4233C59.7793 23.4233 58.1044 25.0099 58.1044 27.2136C58.1044 29.3292 59.7793 31.004 61.8948 31.004C64.0104 31.004 65.6852 29.4174 65.6852 27.2136C65.6852 24.9218 64.0104 23.4233 61.8948 23.4233ZM61.8948 29.4174C60.7489 29.4174 59.7793 28.4477 59.7793 27.1255C59.7793 25.8033 60.7489 24.8336 61.8948 24.8336C63.0408 24.8336 64.0104 25.7151 64.0104 27.1255C64.0104 28.4477 63.0408 29.4174 61.8948 29.4174ZM53.697 23.4233C51.5815 23.4233 49.9066 25.0099 49.9066 27.2136C49.9066 29.3292 51.5815 31.004 53.697 31.004C55.8126 31.004 57.4874 29.4174 57.4874 27.2136C57.4874 24.9218 55.8126 23.4233 53.697 23.4233ZM53.697 29.4174C52.5511 29.4174 51.5815 28.4477 51.5815 27.1255C51.5815 25.8033 52.5511 24.8336 53.697 24.8336C54.8429 24.8336 55.8126 25.7151 55.8126 27.1255C55.8126 28.4477 54.8429 29.4174 53.697 29.4174ZM43.9125 24.5692V26.1559H47.7029C47.6148 27.0373 47.2622 27.7425 46.8214 28.1833C46.2925 28.7122 45.4111 29.3292 43.9125 29.3292C41.5325 29.3292 39.7695 27.4781 39.7695 25.0981C39.7695 22.7181 41.6207 20.8669 43.9125 20.8669C45.1466 20.8669 46.1162 21.3958 46.8214 22.0129L47.9674 20.8669C46.9977 19.9855 45.7636 19.2803 44.0007 19.2803C40.8273 19.2803 38.0947 21.9247 38.0947 25.0981C38.0947 28.2714 40.8273 30.9159 44.0007 30.9159C45.7636 30.9159 46.9977 30.387 48.0555 29.2411C49.1133 28.1833 49.4659 26.6847 49.4659 25.5388C49.4659 25.1862 49.4659 24.8336 49.3777 24.5692H43.9125ZM83.932 25.8033C83.5794 24.9218 82.6979 23.4233 80.7586 23.4233C78.8193 23.4233 77.2327 24.9218 77.2327 27.2136C77.2327 29.3292 78.8193 31.004 80.9349 31.004C82.6097 31.004 83.6675 29.9462 84.0201 29.3292L82.786 28.4477C82.3453 29.0648 81.8164 29.5055 80.9349 29.5055C80.0534 29.5055 79.5245 29.1529 79.0838 28.3596L84.1083 26.244L83.932 25.8033ZM78.8193 27.0373C78.8193 25.627 79.9653 24.8336 80.7586 24.8336C81.3757 24.8336 81.9927 25.1862 82.169 25.627L78.8193 27.0373ZM74.6764 30.6514H76.3512V19.6329H74.6764V30.6514ZM72.0319 24.2166C71.5912 23.7758 70.886 23.3351 70.0045 23.3351C68.1534 23.3351 66.3904 25.0099 66.3904 27.1255C66.3904 29.2411 68.0652 30.8277 70.0045 30.8277C70.886 30.8277 71.5912 30.387 71.9438 29.9462H72.0319V30.4751C72.0319 31.8855 71.2386 32.6788 70.0045 32.6788C69.0349 32.6788 68.3297 31.9737 68.1534 31.3566L66.743 31.9737C67.1837 32.9433 68.2415 34.1774 70.0926 34.1774C72.0319 34.1774 73.6186 33.0314 73.6186 30.2988V23.5996H72.0319V24.2166ZM70.0926 29.4174C68.9467 29.4174 67.9771 28.4477 67.9771 27.1255C67.9771 25.8033 68.9467 24.8336 70.0926 24.8336C71.2386 24.8336 72.1201 25.8033 72.1201 27.1255C72.1201 28.4477 71.2386 29.4174 70.0926 29.4174ZM91.6009 19.6329H87.6342V30.6514H89.309V26.5085H91.6009C93.452 26.5085 95.215 25.1862 95.215 23.0707C95.215 20.9551 93.452 19.6329 91.6009 19.6329ZM91.689 24.9218H89.309V21.1314H91.689C92.9231 21.1314 93.6283 22.1892 93.6283 22.9825C93.5401 23.9521 92.835 24.9218 91.689 24.9218ZM101.826 23.3351C100.592 23.3351 99.3579 23.864 98.9172 25.0099L100.416 25.627C100.768 25.0099 101.297 24.8336 101.914 24.8336C102.796 24.8336 103.589 25.3625 103.677 26.244V26.3322C103.413 26.1559 102.708 25.8914 102.002 25.8914C100.416 25.8914 98.8291 26.7729 98.8291 28.3596C98.8291 29.8581 100.151 30.8277 101.562 30.8277C102.708 30.8277 103.236 30.2988 103.677 29.7699H103.765V30.6514H105.352V26.4203C105.176 24.481 103.677 23.3351 101.826 23.3351ZM101.65 29.4174C101.121 29.4174 100.328 29.1529 100.328 28.4477C100.328 27.5662 101.297 27.3018 102.091 27.3018C102.796 27.3018 103.148 27.4781 103.589 27.6544C103.413 28.7122 102.531 29.4174 101.65 29.4174ZM110.905 23.5996L109.054 28.3596H108.966L107.027 23.5996H105.264L108.173 30.2988L106.498 34.0011H108.173L112.668 23.5996H110.905ZM96.0965 30.6514H97.7713V19.6329H96.0965V30.6514Z" fill="white"/>
<g id="Group_2">
<path id="Vector_9" d="M11.0328 10.8171C10.7683 11.0816 10.6802 11.5223 10.6802 12.0512V31.532C10.6802 32.0609 10.8565 32.5017 11.1209 32.7661L11.2091 32.8543L22.1395 21.9239V21.8357V21.7476L11.0328 10.8171Z" fill="url(#paint0_linear)"/>
<path id="Vector_10" d="M25.6654 25.6267L22.0513 22.0126V21.8363V21.7481L25.6654 18.134L25.7535 18.2222L30.0728 20.6903C31.3069 21.3955 31.3069 22.5415 30.0728 23.2466L25.6654 25.6267Z" fill="url(#paint1_linear)"/>
<path id="Vector_11" d="M25.754 25.5389L22.0518 21.8367L11.0332 32.8552C11.4739 33.296 12.091 33.296 12.8843 32.9434L25.754 25.5389Z" fill="url(#paint2_linear)"/>
<path id="Vector_12" d="M25.754 18.1344L12.8843 10.8181C12.091 10.3773 11.4739 10.4655 11.0332 10.9062L22.0518 21.8367L25.754 18.1344Z" fill="url(#paint3_linear)"/>
<g id="Group_3">
<path id="Vector_13" opacity="0.2" d="M25.6659 25.4509L12.8843 32.6791C12.1791 33.1198 11.5621 33.0317 11.1214 32.6791L11.0332 32.7673L11.1214 32.8554C11.5621 33.208 12.1791 33.2961 12.8843 32.8554L25.6659 25.4509Z" fill="white"/>
<path id="Vector_14" opacity="0.12" d="M11.0328 32.6796C10.7683 32.4152 10.6802 31.9744 10.6802 31.4456V31.5337C10.6802 32.0626 10.8565 32.5033 11.1209 32.7678V32.6796H11.0328Z" fill="white"/>
</g>
<path id="Vector_15" opacity="0.12" d="M30.0725 22.9826L25.665 25.4508L25.7532 25.5389L30.0725 23.0707C30.6895 22.7182 30.954 22.2774 30.954 21.8367C30.954 22.2774 30.6014 22.63 30.0725 22.9826Z" fill="white"/>
<path id="Vector_16" opacity="0.25" d="M12.8844 10.9062L30.0733 20.6907C30.6022 21.0433 30.9548 21.3959 30.9548 21.8366C30.9548 21.3959 30.6904 20.9552 30.0733 20.6026L12.8844 10.8181C11.6503 10.1129 10.6807 10.6418 10.6807 12.0522V12.1403C10.6807 10.8181 11.6503 10.201 12.8844 10.9062Z" fill="white"/>
</g>
</g>
<defs>
<linearGradient id="paint0_linear" x1="21.0814" y1="11.8836" x2="6.28791" y2="26.677" gradientUnits="userSpaceOnUse">
<stop stop-color="#00A0FF"/>
<stop offset="0.00657445" stop-color="#00A1FF"/>
<stop offset="0.2601" stop-color="#00BEFF"/>
<stop offset="0.5122" stop-color="#00D2FF"/>
<stop offset="0.7604" stop-color="#00DFFF"/>
<stop offset="1" stop-color="#00E3FF"/>
</linearGradient>
<linearGradient id="paint1_linear" x1="31.6897" y1="21.8376" x2="10.3605" y2="21.8376" gradientUnits="userSpaceOnUse">
<stop stop-color="#FFE000"/>
<stop offset="0.4087" stop-color="#FFBD00"/>
<stop offset="0.7754" stop-color="#FFA500"/>
<stop offset="1" stop-color="#FF9C00"/>
</linearGradient>
<linearGradient id="paint2_linear" x1="23.7503" y1="23.8607" x2="3.6892" y2="43.9218" gradientUnits="userSpaceOnUse">
<stop stop-color="#FF3A44"/>
<stop offset="1" stop-color="#C31162"/>
</linearGradient>
<linearGradient id="paint3_linear" x1="8.29813" y1="4.36235" x2="17.2563" y2="13.3204" gradientUnits="userSpaceOnUse">
<stop stop-color="#32A071"/>
<stop offset="0.0685" stop-color="#2DA771"/>
<stop offset="0.4762" stop-color="#15CF74"/>
<stop offset="0.8009" stop-color="#06E775"/>
<stop offset="1" stop-color="#00F076"/>
</linearGradient>
</defs>
</svg>
